PathFileType	4	(X/Y/Z)	/Users/itak/Documents/Research/Walk-IL/dataset/trc/00437_00167.trc
DataRate	CameraRate	NumFrames	NumMarkers	Units	OrigDataRate	OrigDataStartFrame	OrigNumFrames
100.000000	100.000000	4	53	mm	100.000000	0	553
Frame#	Time	RPSI			LPSI			L3			STRN			T10			C7			CLAV			RBAK			LBAK			LSHO			LUPA			LAEL			LAOL			LWTS			LWPS			LFRA			LIFD			LHPS			LHTS			RSHO			RUPA			RAEL			RAOL			RWTS			RWPS			RFRA			RIFD			RHTS			RHPS			RBHD			LFHD			RFHD			LBHD			LHIP			RHIP			RASI			LASI			LKNE			LTHI			LANK			LTIP			LTOE			LMT1			LMT5			LHEE			RKNE			RTHI			RANK			RTIP			RTOE			RMT1			RMT5			RHEE			
		X1	Y1	Z1	X2	Y2	Z2	X3	Y3	Z3	X4	Y4	Z4	X5	Y5	Z5	X6	Y6	Z6	X7	Y7	Z7	X8	Y8	Z8	X9	Y9	Z9	X10	Y10	Z10	X11	Y11	Z11	X12	Y12	Z12	X13	Y13	Z13	X14	Y14	Z14	X15	Y15	Z15	X16	Y16	Z16	X17	Y17	Z17	X18	Y18	Z18	X19	Y19	Z19	X20	Y20	Z20	X21	Y21	Z21	X22	Y22	Z22	X23	Y23	Z23	X24	Y24	Z24	X25	Y25	Z25	X26	Y26	Z26	X27	Y27	Z27	X28	Y28	Z28	X29	Y29	Z29	X30	Y30	Z30	X31	Y31	Z31	X32	Y32	Z32	X33	Y33	Z33	X34	Y34	Z34	X35	Y35	Z35	X36	Y36	Z36	X37	Y37	Z37	X38	Y38	Z38	X39	Y39	Z39	X40	Y40	Z40	X41	Y41	Z41	X42	Y42	Z42	X43	Y43	Z43	X44	Y44	Z44	X45	Y45	Z45	X46	Y46	Z46	X47	Y47	Z47	X48	Y48	Z48	X49	Y49	Z49	X50	Y50	Z50	X51	Y51	Z51	X52	Y52	Z52	X53	Y53	Z53	

1	0	-1196.547241210938	960.5130615234375	-472.1926879882812	-1118.6484375	962.3357543945312	-589.900146484375	-1160.550903320312	1056.133666992188	-513.359619140625	-931.2327270507812	1261.769897460938	-389.0025329589844	-1181.922241210938	1179.140869140625	-527.69775390625	-1138.994506835938	1449.1650390625	-488.3384094238281	-965.6338500976562	1374.0498046875	-412.1046447753906	-1235.611450195312	1327.850830078125	-432.601318359375	-1119.386108398438	1402.632568359375	-589.8062133789062	-990.0870971679688	1427.142822265625	-610.8169555664062	-950.3026733398438	1310.589599609375	-703.96728515625	-908.3966064453125	1096.543212890625	-725.2412109375	-1009.480346679688	1077.9111328125	-709.79248046875	-853.196044921875	898.3292846679688	-644.4898071289062	-863.1461791992188	881.1823120117188	-715.8563232421875	-883.6577758789062	1010.082580566406	-723.2423095703125	-843.33154296875	729.2677001953125	-642.0689697265625	-855.0675048828125	800.2028198242188	-709.7532958984375	-832.0547485351562	809.2125244140625	-642.6654052734375	-1150.50732421875	1423.667236328125	-312.9779357910156	-1198.99658203125	1362.917724609375	-250.8866424560547	-1208.875366210938	1074.3447265625	-193.5864868164062	-1244.425170898438	1056.8828125	-248.7583923339844	-1090.019653320312	877.6820068359375	-202.5062408447266	-1170.409790039062	858.8760375976562	-171.1334686279297	-1206.125244140625	1015.878356933594	-183.5710144042969	-1085.271362304688	718.5879516601562	-196.2543182373047	-1076.145141601562	778.1959228515625	-186.1383056640625	-1149.204833984375	773.1611328125	-166.9782867431641	-1124.831665039062	1643.629272460938	-387.2340698242188	-929.173583984375	1676.098388671875	-446.981201171875	-999.6045532226562	1673.422485351562	-336.6839599609375	-1042.910522460938	1650.645629882812	-545.5410766601562	-938.5098876953125	862.203857421875	-610.4971313476562	-1174.931518554688	859.2734985351562	-289.5596923828125	-1053.649536132812	903.0044555664062	-285.6779174804688	-898.9373779296875	904.0591430664062	-492.1014404296875	-947.0316162109375	436.8206176757812	-555.3034057617188	-917.0847778320312	591.5192260742188	-568.9774780273438	-1045.842041015625	33.14823150634766	-597.3516235351562	-965.2155151367188	281.6024780273438	-570.39208984375	-901.9918823242188	44.67463684082031	-413.6708374023438	-977.6919555664062	50.06805801391602	-432.9117431640625	-914.036376953125	45.63222885131836	-526.9862670898438	-1119.1845703125	35.9130973815918	-587.9556884765625	-1130.352294921875	463.21435546875	-307.8210144042969	-1139.897583007812	723.586181640625	-259.9258728027344	-1187.58837890625	42.67640686035156	-351.7761840820312	-1147.6982421875	317.5480651855469	-305.444580078125	-979.8214111328125	48.63981246948242	-287.1909484863281	-1016.063903808594	54.54056549072266	-348.5111083984375	-1084.967651367188	47.50559234619141	-263.9268493652344	-1222.452392578125	35.0453987121582	-424.5779418945312	
2	0.01	-1196.51318359375	960.53076171875	-472.2116088867188	-1118.622314453125	962.3345336914062	-589.9150390625	-1160.536499023438	1056.126098632812	-513.3712158203125	-931.2357788085938	1261.77685546875	-389.0179138183594	-1181.915283203125	1179.132690429688	-527.717041015625	-1138.99755859375	1449.164306640625	-488.3738403320312	-965.6387939453125	1374.057006835938	-412.1201171875	-1235.621215820312	1327.84228515625	-432.6304931640625	-1119.384521484375	1402.6376953125	-589.853515625	-990.079345703125	1427.141235351562	-610.84375	-950.2890625	1310.578735351562	-703.9740600585938	-908.3576049804688	1096.53173828125	-725.229736328125	-1009.478454589844	1077.914428710938	-709.7984619140625	-853.1494140625	898.3386840820312	-644.414794921875	-863.1050415039062	881.1900024414062	-715.8174438476562	-883.6912841796875	1010.089721679688	-723.240234375	-843.2470092773438	729.3173217773438	-641.9627075195312	-855.0618286132812	800.182373046875	-709.7297973632812	-832.0191040039062	809.2099609375	-642.590576171875	-1150.515502929688	1423.665649414062	-313.0220031738281	-1199.012329101562	1362.917846679688	-250.9320678710938	-1208.922607421875	1074.361328125	-193.581298828125	-1244.454833984375	1056.894897460938	-248.7740936279297	-1090.09033203125	877.6749267578125	-202.4677124023438	-1170.487182617188	858.881591796875	-171.1081085205078	-1206.178100585938	1015.893310546875	-183.5747528076172	-1085.361572265625	718.587646484375	-196.2071228027344	-1076.227661132812	778.1856079101562	-186.1038665771484	-1149.299072265625	773.1760864257812	-166.9245910644531	-1124.874755859375	1643.658325195312	-387.2814025878906	-929.1761474609375	1676.081420898438	-446.9953308105469	-999.588623046875	1673.416381835938	-336.7065124511719	-1042.902221679688	1650.61865234375	-545.5671997070312	-938.5451049804688	862.2059936523438	-610.543212890625	-1174.916381835938	859.297607421875	-289.5591430664062	-1053.613159179688	903.00244140625	-285.7093811035156	-898.92529296875	904.0650634765625	-492.119140625	-947.0283813476562	436.8091430664062	-555.3201904296875	-917.0816040039062	591.52001953125	-568.9760131835938	-1045.840576171875	33.14540863037109	-597.3439331054688	-965.2459106445312	281.5787048339844	-570.4155883789062	-901.9927978515625	44.67918014526367	-413.6777954101562	-977.7001342773438	50.06816864013672	-432.9132385253906	-914.0383911132812	45.63676071166992	-526.9755859375	-1119.186401367188	35.90885543823242	-587.959716796875	-1130.38671875	463.2307434082031	-307.8550109863281	-1139.8818359375	723.6016235351562	-259.9375305175781	-1187.598022460938	42.67390441894531	-351.7762145996094	-1147.730590820312	317.5513000488281	-305.4888610839844	-979.8291625976562	48.64191055297852	-287.1875915527344	-1016.071044921875	54.53860092163086	-348.5111083984375	-1084.970947265625	47.50639343261719	-263.9283142089844	-1222.459838867188	35.03634643554688	-424.5742797851562	
3	0.02	-1196.46240234375	960.5550537109375	-472.232666015625	-1118.58447265625	962.332763671875	-589.9351196289062	-1160.515991210938	1056.11669921875	-513.3857421875	-931.2373046875	1261.787231445312	-389.0383911132812	-1181.905029296875	1179.121704101562	-527.7412109375	-1139.000244140625	1449.162475585938	-488.4206237792969	-965.6430053710938	1374.066772460938	-412.1426086425781	-1235.631713867188	1327.8310546875	-432.6697692871094	-1119.379638671875	1402.643188476562	-589.9129638671875	-990.0669555664062	1427.136962890625	-610.8809814453125	-950.270751953125	1310.56396484375	-703.9848022460938	-908.30908203125	1096.517578125	-725.216552734375	-1009.476318359375	1077.918579101562	-709.8060913085938	-853.0905151367188	898.3499755859375	-644.31982421875	-863.0537719726562	881.1976928710938	-715.7682495117188	-883.7395629882812	1010.099243164062	-723.2410278320312	-843.144775390625	729.3765869140625	-641.830078125	-855.0528564453125	800.155029296875	-709.695068359375	-831.9786376953125	809.2031860351562	-642.4945678710938	-1150.525390625	1423.663452148438	-313.0796813964844	-1199.032348632812	1362.918090820312	-250.9933776855469	-1208.984252929688	1074.383178710938	-193.577392578125	-1244.49365234375	1056.911499023438	-248.7958831787109	-1090.188842773438	877.663818359375	-202.4166564941406	-1170.59375	858.8895263671875	-171.0760803222656	-1206.248413085938	1015.913452148438	-183.5815582275391	-1085.486206054688	718.5819702148438	-196.1520690917969	-1076.341186523438	778.16943359375	-186.0618286132812	-1149.43310546875	773.1952514648438	-166.8566741943359	-1124.923217773438	1643.692138671875	-387.3382873535156	-929.1759643554688	1676.060546875	-447.013427734375	-999.56787109375	1673.407836914062	-336.7356872558594	-1042.891845703125	1650.594360351562	-545.5985107421875	-938.5800170898438	862.2086181640625	-610.5975341796875	-1174.89453125	859.3284912109375	-289.5596923828125	-1053.564453125	902.9998779296875	-285.7492370605469	-898.9011840820312	904.0707397460938	-492.1399536132812	-947.0283813476562	436.7983703613281	-555.3419189453125	-917.0774536132812	591.5202026367188	-568.9745483398438	-1045.836547851562	33.1412467956543	-597.3324584960938	-965.2835693359375	281.5506896972656	-570.4456787109375	-901.9950561523438	44.68593978881836	-413.687744140625	-977.71044921875	50.0682487487793	-432.914794921875	-914.0408325195312	45.6423225402832	-526.9616088867188	-1119.189086914062	35.90350341796875	-587.9647216796875	-1130.428833007812	463.2518005371094	-307.8981628417969	-1139.858642578125	723.6209716796875	-259.9542236328125	-1187.609252929688	42.66975402832031	-351.7754821777344	-1147.771240234375	317.5558166503906	-305.5448608398438	-979.8392944335938	48.64458465576172	-287.1831970214844	-1016.080200195312	54.53614044189453	-348.5110778808594	-1084.97509765625	47.50741195678711	-263.9303283691406	-1222.46923828125	35.02477264404297	-424.5696411132812	
4	0.03	-1196.393676757812	960.5863037109375	-472.2536010742188	-1118.5341796875	962.3305053710938	-589.9601440429688	-1160.488525390625	1056.106201171875	-513.402587890625	-931.2359008789062	1261.80078125	-389.0635070800781	-1181.890747070312	1179.10791015625	-527.76904296875	-1139.001708984375	1449.159057617188	-488.4775695800781	-965.64501953125	1374.078857421875	-412.1726989746094	-1235.640869140625	1327.817626953125	-432.7186584472656	-1119.370239257812	1402.647705078125	-589.9818115234375	-990.0489501953125	1427.129028320312	-610.9287109375	-950.2479858398438	1310.545166015625	-704.0001831054688	-908.2537841796875	1096.5009765625	-725.203125	-1009.474243164062	1077.923583984375	-709.81494140625	-853.0224609375	898.3619995117188	-644.2097778320312	-862.9954223632812	881.20361328125	-715.7111206054688	-883.802978515625	1010.110656738281	-723.2463989257812	-843.0328979492188	729.4405517578125	-641.6781616210938	-855.0400390625	800.1207885742188	-709.64794921875	-831.9381103515625	809.1903076171875	-642.3807373046875	-1150.535766601562	1423.66064453125	-313.1494140625	-1199.055419921875	1362.918212890625	-251.0697021484375	-1209.057983398438	1074.409423828125	-193.5766448974609	-1244.54052734375	1056.932739257812	-248.8239135742188	-1090.31591796875	877.6477661132812	-202.3543090820312	-1170.729248046875	858.8997802734375	-171.0391693115234	-1206.334838867188	1015.938415527344	-183.59228515625	-1085.645629882812	718.5679321289062	-196.0940246582031	-1076.485473632812	778.1463623046875	-186.0149841308594	-1149.608642578125	773.2177124023438	-166.7781219482422	-1124.971557617188	1643.7275390625	-387.4008178710938	-929.1712036132812	1676.036987304688	-447.034912109375	-999.542724609375	1673.396606445312	-336.7705993652344	-1042.879516601562	1650.578735351562	-545.6328125	-938.608154296875	862.2115478515625	-610.65576171875	-1174.86572265625	859.3648071289062	-289.5618896484375	-1053.504150390625	902.9967651367188	-285.79541015625	-898.861083984375	904.0750122070312	-492.1616821289062	-947.0340576171875	436.7906799316406	-555.3680419921875	-917.0725708007812	591.5196533203125	-568.9735107421875	-1045.829345703125	33.13563537597656	-597.3168334960938	-965.3265380859375	281.5208129882812	-570.4815063476562	-901.9992065429688	44.6950798034668	-413.7007141113281	-977.7224731445312	50.0682258605957	-432.916259765625	-914.0435180664062	45.64844512939453	-526.9451293945312	-1119.192749023438	35.89723968505859	-587.9703979492188	-1130.475952148438	463.276611328125	-307.948486328125	-1139.827392578125	723.6431884765625	-259.9761657714844	-1187.620971679688	42.6636962890625	-351.7737731933594	-1147.817993164062	317.5615539550781	-305.6100158691406	-979.8513793945312	48.64772415161133	-287.1779479980469	-1016.090942382812	54.53334426879883	-348.5110473632812	-1084.979858398438	47.50858306884766	-263.9329528808594	-1222.47998046875	35.01105880737305	-424.5643310546875	
